<?xml version="1.0" encoding="UTF-8"?>
<!DOCTYPE svg PUBLIC "-//W3C//DTD SVG 1.1//EN" "http://www.w3.org/Graphics/SVG/1.1/DTD/svg11.dtd">
<!-- Creator: CorelDRAW 2018 (64 Bit) -->
<svg xmlns="http://www.w3.org/2000/svg" xml:space="preserve" width="500px" height="113px" version="1.1" style="shape-rendering:geometricPrecision; text-rendering:geometricPrecision; image-rendering:optimizeQuality; fill-rule:evenodd; clip-rule:evenodd"
viewBox="0 0 50109 11341"
 xmlns:xlink="http://www.w3.org/1999/xlink">
 <defs>
  <style type="text/css">
   <![CDATA[
    .fil0 {fill:#A8CF45}
    .fil1 {fill:#006038;fill-rule:nonzero}
   ]]>
  </style>
 </defs>
 <g id="Camada_x0020_1">
  <metadata id="CorelCorpID_0Corel-Layer"/>
  <path class="fil0" d="M5798 9615c476,0 863,386 863,863 0,477 -387,863 -863,863 -477,0 -864,-386 -864,-863 0,-477 387,-863 864,-863zm4913 0c477,0 864,386 864,863 0,477 -387,863 -864,863 -476,0 -863,-386 -863,-863 0,-477 387,-863 863,-863zm-7722 -8411c62,80 47,195 -33,257 -80,62 -196,47 -258,-33 -169,-220 -333,-401 -492,-547 -344,-319 -660,-476 -945,-507 -272,-30 -522,57 -743,227 -70,55 -137,117 -200,185 -69,74 -185,79 -259,10 -74,-69 -79,-185 -10,-259 78,-85 160,-161 245,-227 295,-227 632,-343 1006,-302 361,40 749,227 1155,603 175,162 354,358 534,593zm9986 5038l-1 3036 -4583 0c-5222,0 -6050,-872 -5508,-7444 17,-63 69,-100 116,-36 533,726 1155,1278 1823,1733 -122,657 -166,1248 -144,1762 25,562 129,1034 298,1400 42,93 152,133 244,90 92,-42 132,-152 90,-244 -150,-324 -243,-749 -265,-1262 -19,-447 15,-959 112,-1528 580,362 1188,663 1797,950 -74,577 -57,1210 22,1786 87,635 250,1208 453,1575 51,93 164,132 252,89 89,-43 119,-153 68,-245 -179,-326 -326,-850 -406,-1438 -71,-517 -90,-1081 -33,-1600l60 28c516,242 1029,481 1518,748 -33,527 -5,914 77,1239 86,347 232,618 428,905 58,85 174,107 259,49 85,-58 106,-174 48,-259 -173,-253 -300,-489 -374,-785 -63,-251 -89,-549 -75,-942 893,529 1689,1183 2267,2157 52,87 165,116 252,64 88,-51 117,-164 65,-252 -461,-777 -1046,-1358 -1702,-1833 147,-72 307,-129 472,-171 267,-69 546,-99 800,-94 103,3 188,-79 190,-182 2,-102 -80,-187 -182,-189 -286,-6 -599,28 -900,105 -256,66 -505,163 -722,296 -474,-309 -979,-573 -1497,-824 340,-370 680,-621 1029,-799 382,-196 782,-308 1207,-398 100,-21 165,-119 144,-219 -21,-100 -119,-164 -219,-144 -453,96 -881,217 -1300,431 -414,212 -813,511 -1209,962 -140,-66 -280,-132 -421,-197 -516,-241 -1036,-484 -1542,-759 344,-295 687,-498 1034,-649 397,-174 805,-283 1225,-386 100,-25 161,-126 137,-227 -25,-100 -126,-161 -227,-137 -436,107 -861,221 -1285,407 -413,181 -822,427 -1230,797 -885,-516 -1713,-1154 -2380,-2081 -26,-16 7,-105 66,-104 577,120 1980,166 4097,163 3319,-6 5555,1217 5555,4656z"/>
  <path class="fil1" d="M17065 8415l208 0c42,126 63,237 63,334 0,97 -6,170 -18,221 -244,38 -442,57 -593,57 -455,0 -682,-246 -682,-739l0 -3892 38 -44 303 0c155,0 265,37 328,110 63,74 94,199 94,376l0 3293c0,189 87,284 259,284z"/>
  <path class="fil1" d="M20144 6137c298,299 448,730 448,1294 0,563 -150,994 -448,1293 -240,240 -556,359 -950,359 -393,0 -709,-119 -949,-359 -299,-299 -448,-730 -448,-1293 0,-564 149,-995 448,-1294 240,-239 556,-359 949,-359 394,0 710,120 950,359zm-950 234c-397,0 -596,353 -596,1060 0,706 199,1059 596,1059 398,0 597,-353 597,-1059 0,-707 -199,-1060 -597,-1060z"/>
  <path class="fil1" d="M22270 6478l0 2378c0,366 -27,629 -79,789 -53,160 -117,280 -193,359 -155,173 -407,299 -757,379 -126,-114 -199,-273 -220,-479 181,-89 305,-186 372,-291 67,-105 101,-267 101,-485l0 -2360c0,-227 -95,-340 -284,-340l-133 0c-21,-72 -31,-162 -31,-272 0,-109 10,-204 31,-284 169,-16 341,-25 518,-25l107 0c177,0 315,56 416,167 101,112 152,266 152,464zm-928 -1180c-42,-96 -63,-200 -63,-312 0,-111 21,-216 63,-312 110,-59 245,-88 407,-88 162,0 291,29 388,88 42,96 63,201 63,312 0,112 -21,216 -63,312 -97,59 -232,89 -407,89 -174,0 -304,-30 -388,-89z"/>
  <path class="fil1" d="M25720 8642c-21,71 -57,146 -110,224 -53,78 -106,138 -161,180 -261,-30 -452,-152 -574,-366 -277,269 -578,403 -902,403 -324,0 -568,-94 -732,-284 -164,-189 -246,-407 -246,-655 0,-354 115,-620 344,-799 229,-178 523,-268 880,-268 193,0 376,9 549,26l0 -190c0,-332 -160,-498 -480,-498 -227,0 -548,76 -965,227 -122,-130 -191,-318 -208,-561 454,-190 908,-284 1363,-284 315,0 572,88 769,265 198,176 297,443 297,801l0 1287c0,231 59,395 176,492zm-1583 -158c219,0 429,-101 631,-303l0 -561c-147,-17 -307,-25 -480,-25 -172,0 -302,44 -391,132 -88,88 -132,200 -132,334 0,135 34,239 101,313 67,73 157,110 271,110z"/>
  <path class="fil1" d="M26181 8768c4,-84 29,-180 76,-287 46,-107 101,-190 164,-249 336,181 631,271 883,271 151,0 270,-29 356,-88 87,-59 130,-137 130,-234 0,-164 -118,-290 -354,-378l-353 -133c-530,-197 -795,-502 -795,-914 0,-295 108,-531 322,-710 214,-179 499,-268 855,-268 355,0 709,82 1063,246 4,96 -16,200 -60,309 -44,109 -100,191 -167,246 -312,-143 -595,-215 -852,-215 -118,0 -211,28 -281,82 -69,55 -104,129 -104,221 0,135 112,242 335,322l384 145c543,202 814,526 814,972 0,298 -112,536 -337,712 -225,177 -537,265 -934,265 -397,0 -779,-105 -1145,-315z"/>
  <path class="fil1" d="M31808 8642c-21,71 -58,146 -110,224 -53,78 -106,138 -161,180 -261,-30 -452,-152 -574,-366 -278,269 -579,403 -902,403 -324,0 -568,-94 -732,-284 -164,-189 -246,-407 -246,-655 0,-354 114,-620 344,-799 229,-178 522,-268 880,-268 193,0 376,9 549,26l0 -190c0,-332 -160,-498 -480,-498 -227,0 -549,76 -965,227 -122,-130 -191,-318 -208,-561 454,-190 908,-284 1362,-284 316,0 572,88 770,265 198,176 296,443 296,801l0 1287c0,231 59,395 177,492zm-1583 -158c218,0 429,-101 631,-303l0 -561c-148,-17 -307,-25 -480,-25 -172,0 -303,44 -391,132 -88,88 -133,200 -133,334 0,135 34,239 101,313 68,73 158,110 272,110z"/>
  <path class="fil1" d="M32527 7986l0 -1407c0,-252 -40,-448 -120,-587 126,-113 277,-170 451,-170 175,0 294,40 357,120 63,80 95,204 95,372l0 1501c0,194 25,332 75,414 51,82 141,123 272,123 239,0 460,-106 662,-316l0 -2170c118,-21 248,-31 391,-31 143,0 273,10 391,31l0 2240c0,269 59,450 177,542 -38,164 -126,297 -265,398 -299,-38 -503,-188 -612,-448 -324,302 -662,454 -1016,454 -282,0 -495,-98 -640,-293 -145,-196 -218,-454 -218,-773z"/>
  <path class="fil1" d="M36959 9083c-355,0 -628,-146 -817,-438 -189,-292 -284,-693 -284,-1202 0,-509 121,-908 363,-1198 242,-291 533,-436 874,-436 214,0 435,59 662,177l0 -1590 38 -44 303 0c155,0 265,37 328,110 63,74 94,199 94,376l0 3261c0,261 59,442 177,543 -21,71 -58,146 -110,224 -53,78 -107,138 -161,180 -265,-38 -452,-164 -562,-379 -248,278 -550,416 -905,416zm199 -643c231,0 431,-114 599,-341l0 -1489c-215,-130 -401,-195 -561,-195 -160,0 -290,91 -388,274 -99,183 -149,441 -149,773 0,332 46,578 139,738 93,160 213,240 360,240z"/>
  <path class="fil1" d="M41990 8642c-21,71 -58,146 -110,224 -53,78 -106,138 -161,180 -261,-30 -453,-152 -574,-366 -278,269 -579,403 -902,403 -324,0 -568,-94 -732,-284 -164,-189 -246,-407 -246,-655 0,-354 115,-620 344,-799 229,-178 522,-268 880,-268 193,0 376,9 548,26l0 -190c0,-332 -159,-498 -479,-498 -227,0 -549,76 -965,227 -122,-130 -191,-318 -208,-561 454,-190 908,-284 1362,-284 316,0 572,88 770,265 198,176 296,443 296,801l0 1287c0,231 59,395 177,492zm-1583 -158c218,0 429,-101 630,-303l0 -561c-147,-17 -307,-25 -479,-25 -172,0 -303,44 -391,132 -88,88 -133,200 -133,334 0,135 34,239 101,313 68,73 158,110 272,110z"/>
  <path class="fil1" d="M43712 8383l669 -2517c88,-17 200,-25 334,-25 135,0 253,19 353,57l26 37c-408,1388 -719,2408 -934,3060 -168,25 -346,38 -533,38 -187,0 -321,-27 -400,-82 -80,-55 -146,-164 -196,-328l-827 -2694c165,-76 312,-113 442,-113 231,0 377,117 435,353l366 1299c34,110 103,398 208,865 5,33 24,50 57,50z"/>
  <path class="fil1" d="M47989 7683l-1766 0c13,248 69,440 167,577 99,137 272,205 521,205 248,0 523,-73 826,-221 118,114 194,274 227,480 -336,240 -741,359 -1214,359 -473,0 -813,-153 -1019,-460 -206,-307 -309,-705 -309,-1192 0,-488 113,-886 340,-1193 228,-307 552,-460 975,-460 423,0 748,127 975,381 227,255 340,576 340,962 0,194 -21,381 -63,562zm-1217 -1338c-345,0 -530,261 -555,783l1097 0 0 -76c0,-210 -44,-381 -132,-511 -88,-130 -225,-196 -410,-196z"/>
  <path class="fil1" d="M49838 8415l208 0c42,126 63,237 63,334 0,97 -6,170 -19,221 -244,38 -442,57 -593,57 -454,0 -681,-246 -681,-739l0 -3892 38 -44 302 0c156,0 266,37 329,110 63,74 94,199 94,376l0 3293c0,189 86,284 259,284z"/>
 </g>
</svg>
